<mxfile host="app.diagrams.net" modified="2021-12-06T05:49:56.697Z" agent="5.0 (Macintosh; Intel Mac OS X 10_15_7) AppleWebKit/537.36 (KHTML, like Gecko) Chrome/96.0.4664.55 Safari/537.36" etag="mA8enMXX4wYkMNhKGHxD" version="15.5.1" type="github">
  <diagram name="Page-1" id="e3a06f82-3646-2815-327d-82caf3d4e204">
    <mxGraphModel dx="1188" dy="662" grid="1" gridSize="10" guides="1" tooltips="1" connect="1" arrows="1" fold="1" page="1" pageScale="1.5" pageWidth="1169" pageHeight="826" background="none" math="0" shadow="0">
      <root>
        <mxCell id="0" style=";html=1;" />
        <mxCell id="1" style=";html=1;" parent="0" />
        <mxCell id="4Svyai9p-GFecrTGYPO--5" value="低代码平台" style="swimlane;align=left;" vertex="1" parent="1">
          <mxGeometry x="660" y="220" width="730" height="620" as="geometry" />
        </mxCell>
        <mxCell id="4Svyai9p-GFecrTGYPO--7" value="前端" style="swimlane;horizontal=0;" vertex="1" parent="4Svyai9p-GFecrTGYPO--5">
          <mxGeometry y="20" width="730" height="200" as="geometry" />
        </mxCell>
        <mxCell id="4Svyai9p-GFecrTGYPO--24" style="edgeStyle=orthogonalEdgeStyle;rounded=0;orthogonalLoop=1;jettySize=auto;html=1;entryX=0;entryY=0.5;entryDx=0;entryDy=0;strokeColor=#3333FF;" edge="1" parent="4Svyai9p-GFecrTGYPO--7" source="4Svyai9p-GFecrTGYPO--12" target="4Svyai9p-GFecrTGYPO--14">
          <mxGeometry relative="1" as="geometry" />
        </mxCell>
        <mxCell id="4Svyai9p-GFecrTGYPO--12" value="low-code-fe&lt;br&gt;1副本 1C1G" style="rounded=1;whiteSpace=wrap;html=1;align=center;" vertex="1" parent="4Svyai9p-GFecrTGYPO--7">
          <mxGeometry x="97" y="80" width="120" height="60" as="geometry" />
        </mxCell>
        <mxCell id="4Svyai9p-GFecrTGYPO--14" value="low-code-frontend-generator&lt;br&gt;&lt;div style=&quot;text-align: center&quot;&gt;&lt;span&gt;2副本 2C4G&lt;/span&gt;&lt;/div&gt;" style="rounded=1;whiteSpace=wrap;html=1;align=left;" vertex="1" parent="4Svyai9p-GFecrTGYPO--7">
          <mxGeometry x="250" y="80" width="160" height="60" as="geometry" />
        </mxCell>
        <mxCell id="4Svyai9p-GFecrTGYPO--10" value="后端" style="swimlane;horizontal=0;" vertex="1" parent="4Svyai9p-GFecrTGYPO--5">
          <mxGeometry y="220" width="730" height="200" as="geometry" />
        </mxCell>
        <mxCell id="4Svyai9p-GFecrTGYPO--30" style="edgeStyle=orthogonalEdgeStyle;rounded=0;orthogonalLoop=1;jettySize=auto;html=1;strokeColor=#3333FF;" edge="1" parent="4Svyai9p-GFecrTGYPO--10" source="4Svyai9p-GFecrTGYPO--18" target="4Svyai9p-GFecrTGYPO--19">
          <mxGeometry relative="1" as="geometry" />
        </mxCell>
        <mxCell id="4Svyai9p-GFecrTGYPO--37" style="edgeStyle=orthogonalEdgeStyle;rounded=0;orthogonalLoop=1;jettySize=auto;html=1;exitX=0.75;exitY=1;exitDx=0;exitDy=0;entryX=0.058;entryY=0.017;entryDx=0;entryDy=0;entryPerimeter=0;strokeColor=#3333FF;" edge="1" parent="4Svyai9p-GFecrTGYPO--10" source="4Svyai9p-GFecrTGYPO--18" target="4Svyai9p-GFecrTGYPO--20">
          <mxGeometry relative="1" as="geometry" />
        </mxCell>
        <mxCell id="4Svyai9p-GFecrTGYPO--18" value="low-code-controller&lt;br&gt;&lt;div style=&quot;&quot;&gt;&lt;span&gt;2副本 2C4G&lt;/span&gt;&lt;/div&gt;" style="rounded=1;whiteSpace=wrap;html=1;align=center;" vertex="1" parent="4Svyai9p-GFecrTGYPO--10">
          <mxGeometry x="97" y="30" width="120" height="60" as="geometry" />
        </mxCell>
        <mxCell id="4Svyai9p-GFecrTGYPO--36" style="edgeStyle=orthogonalEdgeStyle;rounded=0;orthogonalLoop=1;jettySize=auto;html=1;exitX=0.25;exitY=1;exitDx=0;exitDy=0;entryX=0.906;entryY=0.017;entryDx=0;entryDy=0;entryPerimeter=0;strokeColor=#00CC66;" edge="1" parent="4Svyai9p-GFecrTGYPO--10" source="4Svyai9p-GFecrTGYPO--19" target="4Svyai9p-GFecrTGYPO--20">
          <mxGeometry relative="1" as="geometry" />
        </mxCell>
        <mxCell id="4Svyai9p-GFecrTGYPO--19" value="&lt;span&gt;low-code-&lt;/span&gt;generator&lt;br&gt;&lt;div style=&quot;&quot;&gt;2副本 2C4G&lt;/div&gt;" style="rounded=1;whiteSpace=wrap;html=1;align=center;" vertex="1" parent="4Svyai9p-GFecrTGYPO--10">
          <mxGeometry x="260" y="30" width="120" height="60" as="geometry" />
        </mxCell>
        <mxCell id="4Svyai9p-GFecrTGYPO--20" value="ASL-Server&lt;br&gt;2副本 32C 128G" style="rounded=1;whiteSpace=wrap;html=1;align=center;" vertex="1" parent="4Svyai9p-GFecrTGYPO--10">
          <mxGeometry x="180" y="119.5" width="120" height="60" as="geometry" />
        </mxCell>
        <mxCell id="4Svyai9p-GFecrTGYPO--11" value="基础服务" style="swimlane;horizontal=0;" vertex="1" parent="4Svyai9p-GFecrTGYPO--5">
          <mxGeometry y="420" width="730" height="200" as="geometry" />
        </mxCell>
        <mxCell id="4Svyai9p-GFecrTGYPO--21" value="Redis&lt;br&gt;3副本 1C8G" style="rounded=1;whiteSpace=wrap;html=1;align=center;" vertex="1" parent="4Svyai9p-GFecrTGYPO--11">
          <mxGeometry x="60" y="20" width="80" height="60" as="geometry" />
        </mxCell>
        <mxCell id="4Svyai9p-GFecrTGYPO--22" value="MySQL&lt;br&gt;&lt;div style=&quot;&quot;&gt;&lt;span&gt;4C8G&lt;/span&gt;&lt;/div&gt;" style="rounded=1;whiteSpace=wrap;html=1;align=center;" vertex="1" parent="4Svyai9p-GFecrTGYPO--11">
          <mxGeometry x="260" y="20" width="120" height="60" as="geometry" />
        </mxCell>
        <mxCell id="4Svyai9p-GFecrTGYPO--23" value="Ceph" style="rounded=1;whiteSpace=wrap;html=1;align=center;" vertex="1" parent="4Svyai9p-GFecrTGYPO--11">
          <mxGeometry x="60" y="110" width="80" height="60" as="geometry" />
        </mxCell>
        <mxCell id="4Svyai9p-GFecrTGYPO--25" style="edgeStyle=orthogonalEdgeStyle;rounded=0;orthogonalLoop=1;jettySize=auto;html=1;entryX=0.5;entryY=0;entryDx=0;entryDy=0;strokeColor=#3333FF;" edge="1" parent="4Svyai9p-GFecrTGYPO--5" source="4Svyai9p-GFecrTGYPO--12" target="4Svyai9p-GFecrTGYPO--18">
          <mxGeometry relative="1" as="geometry" />
        </mxCell>
        <mxCell id="4Svyai9p-GFecrTGYPO--29" style="edgeStyle=orthogonalEdgeStyle;rounded=0;orthogonalLoop=1;jettySize=auto;html=1;exitX=0.75;exitY=1;exitDx=0;exitDy=0;entryX=0.75;entryY=0;entryDx=0;entryDy=0;strokeColor=#00CC66;" edge="1" parent="4Svyai9p-GFecrTGYPO--5" source="4Svyai9p-GFecrTGYPO--19" target="4Svyai9p-GFecrTGYPO--22">
          <mxGeometry relative="1" as="geometry" />
        </mxCell>
        <mxCell id="4Svyai9p-GFecrTGYPO--35" style="edgeStyle=orthogonalEdgeStyle;rounded=0;orthogonalLoop=1;jettySize=auto;html=1;entryX=0;entryY=0.5;entryDx=0;entryDy=0;exitX=0.5;exitY=1;exitDx=0;exitDy=0;strokeColor=#3333FF;" edge="1" parent="4Svyai9p-GFecrTGYPO--5" source="4Svyai9p-GFecrTGYPO--18" target="4Svyai9p-GFecrTGYPO--22">
          <mxGeometry relative="1" as="geometry" />
        </mxCell>
        <mxCell id="4Svyai9p-GFecrTGYPO--38" style="edgeStyle=orthogonalEdgeStyle;rounded=0;orthogonalLoop=1;jettySize=auto;html=1;exitX=0.75;exitY=1;exitDx=0;exitDy=0;entryX=0.079;entryY=-0.019;entryDx=0;entryDy=0;entryPerimeter=0;strokeColor=#FF0080;" edge="1" parent="4Svyai9p-GFecrTGYPO--5" source="4Svyai9p-GFecrTGYPO--20" target="4Svyai9p-GFecrTGYPO--22">
          <mxGeometry relative="1" as="geometry" />
        </mxCell>
        <mxCell id="4Svyai9p-GFecrTGYPO--39" style="edgeStyle=orthogonalEdgeStyle;rounded=0;orthogonalLoop=1;jettySize=auto;html=1;exitX=0.25;exitY=1;exitDx=0;exitDy=0;entryX=1;entryY=0.25;entryDx=0;entryDy=0;dashed=1;strokeColor=#FF3399;" edge="1" parent="4Svyai9p-GFecrTGYPO--5" source="4Svyai9p-GFecrTGYPO--20" target="4Svyai9p-GFecrTGYPO--21">
          <mxGeometry relative="1" as="geometry" />
        </mxCell>
        <mxCell id="4Svyai9p-GFecrTGYPO--6" value="基础平台" style="swimlane;" vertex="1" parent="1">
          <mxGeometry x="1080" y="220" width="310" height="620" as="geometry" />
        </mxCell>
        <mxCell id="4Svyai9p-GFecrTGYPO--42" style="edgeStyle=orthogonalEdgeStyle;rounded=0;orthogonalLoop=1;jettySize=auto;html=1;strokeColor=#FF8000;fontColor=#FF8000;" edge="1" parent="4Svyai9p-GFecrTGYPO--6" source="4Svyai9p-GFecrTGYPO--15" target="4Svyai9p-GFecrTGYPO--16">
          <mxGeometry relative="1" as="geometry" />
        </mxCell>
        <mxCell id="4Svyai9p-GFecrTGYPO--15" value="nuims-fe&lt;br&gt;1C2G" style="rounded=1;whiteSpace=wrap;html=1;align=center;" vertex="1" parent="4Svyai9p-GFecrTGYPO--6">
          <mxGeometry x="20" y="100" width="120" height="60" as="geometry" />
        </mxCell>
        <mxCell id="4Svyai9p-GFecrTGYPO--16" value="nuims-backend&lt;br&gt;2副本 1C1G" style="rounded=1;whiteSpace=wrap;html=1;align=center;" vertex="1" parent="4Svyai9p-GFecrTGYPO--6">
          <mxGeometry x="20" y="260" width="120" height="60" as="geometry" />
        </mxCell>
        <mxCell id="4Svyai9p-GFecrTGYPO--47" style="edgeStyle=orthogonalEdgeStyle;rounded=0;orthogonalLoop=1;jettySize=auto;html=1;exitX=0.25;exitY=1;exitDx=0;exitDy=0;entryX=0.913;entryY=0.008;entryDx=0;entryDy=0;entryPerimeter=0;fontColor=#000000;strokeColor=#000000;" edge="1" parent="4Svyai9p-GFecrTGYPO--6" source="4Svyai9p-GFecrTGYPO--17" target="4Svyai9p-GFecrTGYPO--45">
          <mxGeometry relative="1" as="geometry" />
        </mxCell>
        <mxCell id="4Svyai9p-GFecrTGYPO--17" value="CICD&lt;br&gt;5台 16C16G 40并发" style="rounded=1;whiteSpace=wrap;html=1;align=center;" vertex="1" parent="4Svyai9p-GFecrTGYPO--6">
          <mxGeometry x="180" y="260" width="120" height="60" as="geometry" />
        </mxCell>
        <mxCell id="4Svyai9p-GFecrTGYPO--45" value="GitLab" style="rounded=1;whiteSpace=wrap;html=1;align=center;" vertex="1" parent="4Svyai9p-GFecrTGYPO--6">
          <mxGeometry x="100" y="440" width="120" height="60" as="geometry" />
        </mxCell>
        <mxCell id="4Svyai9p-GFecrTGYPO--43" style="edgeStyle=orthogonalEdgeStyle;rounded=0;orthogonalLoop=1;jettySize=auto;html=1;entryX=1;entryY=0.5;entryDx=0;entryDy=0;strokeColor=#FF8000;exitX=0.5;exitY=1;exitDx=0;exitDy=0;fontColor=#FF8000;" edge="1" parent="1" source="4Svyai9p-GFecrTGYPO--16" target="4Svyai9p-GFecrTGYPO--22">
          <mxGeometry relative="1" as="geometry" />
        </mxCell>
        <mxCell id="4Svyai9p-GFecrTGYPO--46" style="edgeStyle=orthogonalEdgeStyle;rounded=0;orthogonalLoop=1;jettySize=auto;html=1;entryX=0.5;entryY=1;entryDx=0;entryDy=0;fontColor=#000000;strokeColor=#000000;" edge="1" parent="1" source="4Svyai9p-GFecrTGYPO--17" target="4Svyai9p-GFecrTGYPO--22">
          <mxGeometry relative="1" as="geometry">
            <Array as="points">
              <mxPoint x="1340" y="740" />
              <mxPoint x="980" y="740" />
            </Array>
          </mxGeometry>
        </mxCell>
      </root>
    </mxGraphModel>
  </diagram>
</mxfile>
